<?xml version="1.0" encoding="UTF-8"?>
<svg width="100" height="100" viewBox="0 0 100 100" xmlns="http://www.w3.org/2000/svg">
  <!-- Beer Mug Icon -->
  <g fill="#d1f4fa">
    <path d="M35,20 L65,20 C67,20 68,22 68,24 L68,65 C68,72 62,78 55,78 L45,78 C38,78 32,72 32,65 L32,24 C32,22 33,20 35,20 Z" />
    <path d="M68,30 L75,30 C79,30 82,33 82,37 L82,48 C82,52 79,55 75,55 L68,55 Z" />
    <path d="M35,20 L65,20 L65,28 L35,28 Z" fill="#043b53" opacity="0.3" />
    <path d="M38,35 L62,35 C63.1,35 64,35.9 64,37 L64,37 C64,38.1 63.1,39 62,39 L38,39 C36.9,39 36,38.1 36,37 L36,37 C36,35.9 36.9,35 38,35 Z" fill="#043b53" opacity="0.2" />
    <path d="M40,45 L60,45 C61.1,45 62,45.9 62,47 L62,47 C62,48.1 61.1,49 60,49 L40,49 C38.9,49 38,48.1 38,47 L38,47 C38,45.9 38.9,45 40,45 Z" fill="#043b53" opacity="0.2" />
    <path d="M42,55 L58,55 C59.1,55 60,55.9 60,57 L60,57 C60,58.1 59.1,59 58,59 L42,59 C40.9,59 40,58.1 40,57 L40,57 C40,55.9 40.9,55 42,55 Z" fill="#043b53" opacity="0.2" />
  </g>
</svg>