<?xml version="1.0" encoding="UTF-8"?>
<svg width="100" height="100" viewBox="0 0 100 100" xmlns="http://www.w3.org/2000/svg">
  <!-- Visitors Icon - Group of People -->
  <g fill="#d1f4fa">
    <!-- Center Person -->
    <circle cx="50" cy="30" r="15" />
    <path d="M30,85 L70,85 C70,85 75,65 70,60 C65,55 55,50 50,50 C45,50 35,55 30,60 C25,65 30,85 30,85 Z" />
    
    <!-- Left Person -->
    <circle cx="25" cy="35" r="10" />
    <path d="M15,80 L35,80 C35,80 40,65 35,60 C30,55 25,55 25,55 C25,55 20,55 15,60 C10,65 15,80 15,80 Z" />
    
    <!-- Right Person -->
    <circle cx="75" cy="35" r="10" />
    <path d="M65,80 L85,80 C85,80 90,65 85,60 C80,55 75,55 75,55 C75,55 70,55 65,60 C60,65 65,80 65,80 Z" />
  </g>
</svg>